<svg class="logo" data-name="Layer 1" xmlns="http://www.w3.org/2000/svg" viewBox="0 0 190.99 32.52" fill="#fc0">
    <path  d="M57.91,76.32H53.2v-17H47.06V55.15H64v4.13H57.91Z" transform="translate(-47.06 -44.38)"/>
    <path  d="M79.83,76.32H75.32V68.09c0-2.9-.09-4.08-2.17-4.08a2.75,2.75,0,0,0-2.92,3v9.3H65.72V55.15h4.51V61.9a5.76,5.76,0,0,1,4.33-1.73A5.4,5.4,0,0,1,78.94,62a5.8,5.8,0,0,1,.89,3.85Z" transform="translate(-47.06 -44.38)"/>
    <path  d="M86.29,76.32H81.75V60.57h4.54Z" transform="translate(-47.06 -44.38)"/>
    <path  d="M102.36,76.32H97.82V66.84c0-2.06-.58-2.83-2.14-2.83a2.75,2.75,0,0,0-2.92,3v9.3H88.23V60.57h4.45V62a5.82,5.82,0,0,1,4.42-1.84c3.49,0,5.26,1.85,5.26,5.49Z" transform="translate(-47.06 -44.38)"/>
    <path  d="M118.92,76.32h-5.41L109.93,70l-1.29,1.38v5h-4.42V55.15h4.42V65.66l4.55-5.09h5.54l-5.57,5.93Z" transform="translate(-47.06 -44.38)"/>
    <path  d="M137.33,76.9c-6.31,0-9.93-4.06-9.93-11.15s3.66-11.15,10.31-11.15c5.42,0,8.71,2.78,9,7.62v.24H142.1l0-.19c-.33-2.24-1.84-3.42-4.36-3.42-3.61,0-5.52,2.39-5.52,6.9s1.91,6.84,5.37,6.84a4.27,4.27,0,0,0,4.57-3.65l0-.18h4.59V69C146.42,73.79,142.73,76.9,137.33,76.9Z" transform="translate(-47.06 -44.38)"/>
    <path  d="M153.32,76.32h-4.54V60.57H153v2a5,5,0,0,1,4.83-2.4l.19,0v4.56h-1.58c-2.12,0-3.15,1.06-3.15,3.24Z" transform="translate(-47.06 -44.38)"/>
    <path  d="M166.54,76.84c-4.58,0-7.43-3.25-7.43-8.5S161.94,60,166.49,60c4.81,0,7.57,3.08,7.57,8.44,0,.34,0,.7,0,1.08l0,.21h-10.2c.16,2.11,1.15,3.19,2.93,3.19a2.52,2.52,0,0,0,2.6-1.57l.06-.13h4.52l-.07.27C173,74.85,170.25,76.84,166.54,76.84Zm-2.72-10.22h5.55a2.58,2.58,0,0,0-2.8-2.72C165,63.9,164,64.84,163.82,66.62Z" transform="translate(-47.06 -44.38)"/>
    <path  d="M180.33,76.87c-3.09,0-4.86-1.86-4.86-5.1,0-3,1.56-4.5,5.38-5.09l1.66-.22c2-.25,2.41-.34,2.41-1.29s-.38-1.5-2.28-1.5c-1.07,0-2.35.29-2.35,1.68v.45H176v-.51c0-3.3,2.42-5.27,6.47-5.27,4.42,0,6.86,1.62,6.86,4.55v8.7c0,1.16.19,1.66.74,1.94l.12.06v1h-4.62l-.07-.12a4.53,4.53,0,0,1-.43-1.39A5.81,5.81,0,0,1,180.33,76.87Zm4.65-8a12.71,12.71,0,0,1-2.55.72,8.06,8.06,0,0,0-.83.19c-1.32.38-1.77.84-1.77,1.83a1.59,1.59,0,0,0,1.8,1.62A3,3,0,0,0,185,70Z" transform="translate(-47.06 -44.38)"/>
    <path  d="M197.16,76.52c-3.67,0-4.31-1.47-4.31-4.57V63.9h-2V60.57h2V56.39h4.5v4.18h2.37V63.9h-2.37v8.25c0,.59.05.76,1.14.76h1.23v3.52h-.22l-1.47.06Z" transform="translate(-47.06 -44.38)"/>
    <path  d="M206,76.32h-4.54V60.57H206Z" transform="translate(-47.06 -44.38)"/>
    <path  d="M217.52,76.32H213l-5.67-15.75h5l3,10.4,3-10.4h4.81Z" transform="translate(-47.06 -44.38)"/>
    <path  d="M230.53,76.84c-4.58,0-7.42-3.25-7.42-8.5S225.93,60,230.48,60c4.81,0,7.57,3.08,7.57,8.44,0,.34,0,.7,0,1.08l0,.21H227.8c.17,2.11,1.15,3.19,2.94,3.19a2.51,2.51,0,0,0,2.59-1.57l.06-.13h4.52l-.07.27C237,74.85,234.24,76.84,230.53,76.84Zm-2.72-10.22h5.55a2.58,2.58,0,0,0-2.8-2.72C229,63.9,228,64.84,227.81,66.62Z" transform="translate(-47.06 -44.38)"/>
    <path  d="M125.63,74.17A2.67,2.67,0,1,1,123,71.5,2.68,2.68,0,0,1,125.63,74.17Z" transform="translate(-47.06 -44.38)"/>
    <path  d="M121.63,70.55A3.7,3.7,0,0,1,123,70.3a3.6,3.6,0,0,1,1.32.25l1.06-9V55.15h-4.77v6.39Z" transform="translate(-47.06 -44.38)"/>
    <path  d="M90.45,53a4.31,4.31,0,1,1,4.31-4.31A4.32,4.32,0,0,1,90.45,53Zm0-7.42a3.11,3.11,0,1,0,3.11,3.11A3.11,3.11,0,0,0,90.45,45.58Z" transform="translate(-47.06 -44.38)"/>
    <path  d="M84,58A2.59,2.59,0,1,1,86.6,55.4,2.59,2.59,0,0,1,84,58Zm0-4.17A1.59,1.59,0,1,0,85.6,55.4,1.59,1.59,0,0,0,84,53.81Z" transform="translate(-47.06 -44.38)"/>
</svg>